<?xml version="1.0" standalone="no"?>
<svg xmlns:xlink="http://www.w3.org/1999/xlink" id="wave" style="transform:rotate(180deg); transition: 0.3s" viewBox="0 0 1440 100" version="1.1" xmlns="http://www.w3.org/2000/svg"><defs><linearGradient id="sw-gradient-0" x1="0" x2="0" y1="1" y2="0"><stop stop-color="rgba(255, 249, 234, 1)" offset="0%"/><stop stop-color="rgba(255, 249, 234, 1)" offset="100%"/></linearGradient></defs><path style="transform:translate(0, 0px); opacity:1" fill="url(#sw-gradient-0)" d="M0,60L48,51.7C96,43,192,27,288,18.3C384,10,480,10,576,23.3C672,37,768,63,864,76.7C960,90,1056,90,1152,85C1248,80,1344,70,1440,63.3C1536,57,1632,53,1728,46.7C1824,40,1920,30,2016,28.3C2112,27,2208,33,2304,41.7C2400,50,2496,60,2592,56.7C2688,53,2784,37,2880,35C2976,33,3072,47,3168,43.3C3264,40,3360,20,3456,10C3552,0,3648,0,3744,6.7C3840,13,3936,27,4032,41.7C4128,57,4224,73,4320,70C4416,67,4512,43,4608,36.7C4704,30,4800,40,4896,38.3C4992,37,5088,23,5184,18.3C5280,13,5376,17,5472,23.3C5568,30,5664,40,5760,38.3C5856,37,5952,23,6048,18.3C6144,13,6240,17,6336,26.7C6432,37,6528,53,6624,56.7C6720,60,6816,50,6864,45L6912,40L6912,100L6864,100C6816,100,6720,100,6624,100C6528,100,6432,100,6336,100C6240,100,6144,100,6048,100C5952,100,5856,100,5760,100C5664,100,5568,100,5472,100C5376,100,5280,100,5184,100C5088,100,4992,100,4896,100C4800,100,4704,100,4608,100C4512,100,4416,100,4320,100C4224,100,4128,100,4032,100C3936,100,3840,100,3744,100C3648,100,3552,100,3456,100C3360,100,3264,100,3168,100C3072,100,2976,100,2880,100C2784,100,2688,100,2592,100C2496,100,2400,100,2304,100C2208,100,2112,100,2016,100C1920,100,1824,100,1728,100C1632,100,1536,100,1440,100C1344,100,1248,100,1152,100C1056,100,960,100,864,100C768,100,672,100,576,100C480,100,384,100,288,100C192,100,96,100,48,100L0,100Z"/></svg>